<svg width="52" height="52" viewBox="0 0 52 52" fill="none" xmlns="http://www.w3.org/2000/svg">
<path d="M32.5 49.2916C31.915 49.2916 31.3733 48.9666 31.0917 48.4683C30.81 47.9483 30.81 47.3416 31.1133 46.8216L33.3883 43.0299C33.8433 42.2716 34.84 42.0116 35.62 42.4666C36.4 42.9216 36.6383 43.9183 36.1833 44.6983L35.5983 45.6733C41.5783 44.2649 46.0633 38.8916 46.0633 32.4783C46.0633 31.5899 46.8 30.8533 47.6883 30.8533C48.5767 30.8533 49.3133 31.5899 49.3133 32.4783C49.2917 41.7516 41.7517 49.2916 32.5 49.2916Z" fill="white"/>
<path d="M4.33325 21.1249C3.44492 21.1249 2.70825 20.3883 2.70825 19.4999C2.70825 10.2483 10.2483 2.70825 19.4999 2.70825C20.0849 2.70825 20.6266 3.03325 20.9082 3.53159C21.1899 4.05159 21.1899 4.65825 20.8866 5.17825L18.6116 8.96992C18.1566 9.72825 17.1599 9.98825 16.3799 9.51158C15.6216 9.05658 15.3616 8.05992 15.8383 7.27992L16.4233 6.30492C10.4216 7.71325 5.95825 13.0866 5.95825 19.4999C5.95825 20.3883 5.22159 21.1249 4.33325 21.1249Z" fill="white"/>
<path d="M35.5334 17.7884L27.3868 13.3901C26.5201 12.9351 25.5018 12.9351 24.6351 13.3901L16.4668 17.7884C15.8818 18.1134 15.5134 18.7417 15.5134 19.4351C15.5134 20.1501 15.8818 20.7784 16.4668 21.1034L24.6134 25.5017C25.0468 25.7401 25.5234 25.8484 26.0001 25.8484C26.4768 25.8484 26.9534 25.7401 27.3868 25.5017L35.5334 21.1034C36.1184 20.7784 36.4868 20.1501 36.4868 19.4351C36.4868 18.7417 36.1184 18.1134 35.5334 17.7884Z" fill="white"/>
<path d="M23.27 27.0184L15.6867 23.2268C15.1017 22.9451 14.43 22.9668 13.8667 23.3134C13.325 23.6601 13 24.2451 13 24.8951V32.0668C13 33.3018 13.6933 34.4284 14.7983 34.9701L22.3817 38.7618C22.6417 38.8918 22.9233 38.9568 23.2267 38.9568C23.5733 38.9568 23.8983 38.8701 24.2017 38.6751C24.765 38.3284 25.09 37.7434 25.09 37.0934V29.9218C25.0683 28.6868 24.3967 27.5818 23.27 27.0184Z" fill="white"/>
<path d="M38.1116 23.3134C37.5482 22.9668 36.8766 22.9451 36.2916 23.2268L28.7082 27.0184C27.6032 27.5818 26.9099 28.6868 26.9099 29.9218V37.0934C26.9099 37.7434 27.2349 38.3284 27.7982 38.6751C28.1016 38.8701 28.4266 38.9568 28.7732 38.9568C29.0549 38.9568 29.3366 38.8918 29.6182 38.7618L37.2016 34.9701C38.3066 34.4068 38.9999 33.3018 38.9999 32.0668V24.8951C38.9999 24.2451 38.6749 23.6601 38.1116 23.3134Z" fill="white"/>
</svg>
