<svg width="165" height="37" viewBox="0 0 165 37" fill="none" xmlns="http://www.w3.org/2000/svg">
<path d="M31.6372 14.0339L31.6151 14.0118C31.6133 14.0105 31.6118 14.0089 31.6109 14.007L17.7758 0.171509L3.94085 14.0066C3.93926 14.0082 3.93837 14.0104 3.93676 14.0114L3.91393 14.0335C1.79837 16.161 0.454625 18.9345 0.0963089 21.9134C-0.262007 24.8922 0.38567 27.9053 1.93637 30.4738C3.48708 33.0423 5.85183 35.0188 8.6547 36.0889C11.4576 37.159 14.5377 37.2615 17.4055 36.3799C17.6468 36.3061 17.9047 36.3061 18.1461 36.3799C21.0136 37.2611 24.0936 37.1586 26.8963 36.0884C29.699 35.0181 32.0634 33.0418 33.614 30.4735C35.1647 27.9052 35.8124 24.8922 35.4542 21.9135C35.0961 18.9349 33.7525 16.1613 31.6372 14.0339ZM8.86039 23.1572C8.79304 23.2246 8.73963 23.3046 8.70321 23.3925C8.66676 23.4804 8.64801 23.5747 8.64802 23.6699C8.67264 26.1118 9.36273 28.5006 10.644 30.5794C10.6731 30.6266 10.6866 30.6818 10.6824 30.737C10.6783 30.7922 10.6568 30.8447 10.621 30.887C10.5852 30.9294 10.537 30.9592 10.4832 30.9724C10.4294 30.9857 10.3728 30.9815 10.3215 30.9606C9.35823 30.5555 8.48317 29.9665 7.74524 29.2268C6.23298 27.7142 5.3828 25.6632 5.38143 23.5244C5.38005 21.3855 6.2276 19.3334 7.73794 17.819L17.7758 7.78208L27.8132 17.819C29.3238 19.3333 30.1716 21.3853 30.1702 23.5244C30.169 25.6632 29.3186 27.7142 27.8063 29.2268C27.0683 29.9665 26.1933 30.5555 25.2302 30.9606C25.1788 30.9815 25.1222 30.9857 25.0684 30.9724C25.0146 30.9592 24.9664 30.9292 24.9305 30.887C24.8948 30.8447 24.8731 30.7922 24.869 30.7368C24.8649 30.6816 24.8783 30.6264 24.9074 30.5792C26.189 28.5006 26.8795 26.1118 26.9045 23.6699C26.9045 23.5747 26.8855 23.4804 26.8489 23.3923C26.8123 23.3043 26.7587 23.2244 26.6912 23.1571L21.9434 18.1212C21.8961 18.0817 21.8366 18.0601 21.775 18.0601C21.7135 18.0601 21.6539 18.0817 21.6067 18.1212C21.5594 18.1605 21.5276 18.2153 21.5165 18.2759C21.5054 18.3364 21.5159 18.3988 21.5463 18.4524C23.3902 21.7892 21.8046 26.5822 19.1604 29.2268L19.1465 29.2407C18.7815 29.6017 18.2888 29.8041 17.7755 29.8039C17.2621 29.8038 16.7695 29.601 16.4048 29.2398L16.392 29.2268C13.7468 26.5822 12.162 21.7897 14.0062 18.4531C14.0365 18.3995 14.0471 18.3372 14.036 18.2766C14.025 18.216 13.9931 18.1612 13.9459 18.1219C13.8986 18.0824 13.839 18.0608 13.7775 18.0608C13.7159 18.0608 13.6563 18.0824 13.6091 18.1219L8.86039 23.1572Z" fill="white" fill-opacity="0.8"/>
<path d="M65.6717 11.7261H70.2506L65.5011 27.5958H60.268L58.0497 18.2105L55.8029 27.5958H50.5699L45.8203 11.7261H50.6836L53.1579 22.8747L55.6038 11.7261H60.7515L63.1974 22.8747L65.6717 11.7261Z" fill="white" fill-opacity="0.8"/>
<path d="M82.1447 22.5619C82.8462 21.8793 83.197 20.9123 83.197 19.661C83.197 18.4096 82.8462 17.4521 82.1447 16.7885C81.4431 16.1059 80.6373 15.7646 79.7272 15.7646C78.8172 15.7646 78.0113 16.1059 77.3098 16.7885C76.6083 17.471 76.2575 18.438 76.2575 19.6894C76.2575 20.9408 76.6083 21.9077 77.3098 22.5903C78.0113 23.2539 78.8172 23.5857 79.7272 23.5857C80.6373 23.5857 81.4431 23.2444 82.1447 22.5619ZM73.4135 25.5197C72.0104 24.0029 71.3089 22.0594 71.3089 19.6894C71.3089 17.3194 72.0104 15.3759 73.4135 13.8591C74.8165 12.3233 76.523 11.5555 78.5327 11.5555C80.5615 11.5555 82.1162 12.3044 83.197 13.8022V11.7261H88.0603V27.5958H83.197V25.2922C82.0214 26.9607 80.4477 27.7949 78.4759 27.7949C76.504 27.7949 74.8165 27.0365 73.4135 25.5197Z" fill="white" fill-opacity="0.8"/>
<path d="M90.3139 11.7261H95.4901L99.102 23.5288L102.714 11.7261H107.89L102.259 27.5958H95.9451L90.3139 11.7261Z" fill="white" fill-opacity="0.8"/>
<path d="M116.877 27.7949C114.563 27.7949 112.667 27.0555 111.189 25.5766C109.71 24.0787 108.97 22.0973 108.97 19.6325C108.97 17.1677 109.7 15.2053 111.16 13.7454C112.639 12.2854 114.544 11.5555 116.877 11.5555C119.209 11.5555 121.143 12.2759 122.678 13.7169C124.214 15.1579 124.982 17.1582 124.982 19.7178C124.982 20.2677 124.944 20.7796 124.868 21.2536H113.947C114.042 21.9551 114.355 22.5334 114.886 22.9885C115.417 23.4246 115.985 23.6426 116.592 23.6426C117.218 23.6426 117.682 23.5857 117.986 23.472C118.289 23.3392 118.507 23.216 118.64 23.1022C118.792 22.9695 118.981 22.761 119.209 22.4766H124.47C124.015 24.0692 123.105 25.3585 121.74 26.3444C120.375 27.3114 118.754 27.7949 116.877 27.7949ZM119.92 18.2105C119.844 17.471 119.522 16.8738 118.953 16.4188C118.384 15.9447 117.711 15.7077 116.933 15.7077C116.156 15.7077 115.502 15.9447 114.971 16.4188C114.44 16.8738 114.108 17.471 113.976 18.2105H119.92Z" fill="white" fill-opacity="0.8"/>
<path d="M132.969 11.7261V14.6839C134.107 12.5983 135.624 11.5555 137.52 11.5555V16.5041H136.325C135.206 16.5041 134.363 16.7695 133.794 17.3004C133.244 17.8313 132.969 18.7603 132.969 20.0876V27.5958H128.106V11.7261H132.969Z" fill="white" fill-opacity="0.8"/>
<path d="M144.596 9.93435C144.047 10.4842 143.373 10.7591 142.577 10.7591C141.781 10.7591 141.108 10.4842 140.558 9.93435C140.008 9.3845 139.733 8.71141 139.733 7.91508C139.733 7.09979 140.008 6.41722 140.558 5.86737C141.108 5.31753 141.781 5.0426 142.577 5.0426C143.373 5.0426 144.047 5.31753 144.596 5.86737C145.146 6.41722 145.421 7.09979 145.421 7.91508C145.421 8.71141 145.146 9.3845 144.596 9.93435ZM140.16 27.5958V11.7261H145.023V27.5958H140.16Z" fill="white" fill-opacity="0.8"/>
<path d="M158.825 22.6188C159.469 21.9362 159.792 20.9503 159.792 19.661C159.792 18.3717 159.46 17.3952 158.796 16.7316C158.133 16.049 157.346 15.7077 156.436 15.7077C155.526 15.7077 154.739 16.049 154.075 16.7316C153.431 17.3952 153.108 18.3717 153.108 19.661C153.108 20.9503 153.44 21.9362 154.104 22.6188C154.786 23.3013 155.583 23.6426 156.493 23.6426C157.403 23.6426 158.18 23.3013 158.825 22.6188ZM150.549 25.5481C148.956 24.0503 148.16 22.0784 148.16 19.6325C148.16 17.1866 148.956 15.2337 150.549 13.7738C152.141 12.2949 154.113 11.5555 156.464 11.5555C158.815 11.5555 160.778 12.2949 162.351 13.7738C163.944 15.2337 164.74 17.1866 164.74 19.6325C164.74 22.0784 163.954 24.0503 162.38 25.5481C160.806 27.046 158.844 27.7949 156.493 27.7949C154.142 27.7949 152.16 27.046 150.549 25.5481Z" fill="white" fill-opacity="0.8"/>
</svg>
