<svg width="188" height="39" viewBox="0 0 188 39" fill="none" xmlns="http://www.w3.org/2000/svg">
<path d="M6.11241 9.42888L8.28329 10.5143C8.68289 10.6889 9.11772 10.7675 9.55309 10.7439C9.98846 10.7204 10.4123 10.5953 10.7906 10.3786L12.8422 9.04355C13.1952 8.78734 13.4825 8.45112 13.6806 8.06248C13.8787 7.67384 13.9819 7.24379 13.9818 6.80755L13.8516 4.35989C13.8041 3.92718 13.6556 3.51161 13.4181 3.1468C13.1805 2.78198 12.8605 2.47806 12.4839 2.25956L10.3131 1.14698C9.91427 0.970384 9.47944 0.89017 9.04385 0.912801C8.60827 0.935433 8.18408 1.06026 7.80569 1.27724L5.75427 2.61233C5.40188 2.8692 5.115 3.20552 4.91701 3.59405C4.71898 3.98253 4.61532 4.41231 4.6145 4.84833L4.74475 7.296C4.78692 7.73462 4.93297 8.15686 5.17079 8.52775C5.40861 8.8987 5.73142 9.20762 6.11241 9.42888Z" fill="white" fill-opacity="0.8"/>
<path d="M19.2073 12.598L17.0364 11.4854C16.6377 11.3109 16.2038 11.2324 15.7693 11.2559C15.3348 11.2795 14.9119 11.4046 14.5344 11.6211L12.4612 12.9562C12.1102 13.2143 11.8242 13.5509 11.6263 13.9391C11.4284 14.3273 11.324 14.7565 11.3215 15.1922L11.4518 17.6399C11.4993 18.0726 11.6478 18.4882 11.8854 18.853C12.123 19.2178 12.4429 19.5218 12.8194 19.7402L14.9903 20.8256C15.3882 21.0022 15.8221 21.0824 16.2569 21.0598C16.6916 21.0372 17.1148 20.9123 17.4923 20.6954L19.5492 19.3603C19.9004 19.1011 20.1863 18.7635 20.3841 18.3744C20.582 17.9853 20.6864 17.5554 20.6889 17.1189L20.5586 14.6766C20.5089 14.2494 20.361 13.8395 20.1266 13.4789C19.8921 13.1184 19.5775 12.8169 19.2073 12.598Z" fill="white" fill-opacity="0.8"/>
<path d="M25.9058 22.921L23.7349 21.8355C23.3361 21.6589 22.9013 21.5786 22.4657 21.6013C22.0301 21.6239 21.606 21.7487 21.2276 21.9658L19.1761 23.3009C18.8244 23.5583 18.538 23.8948 18.34 24.2831C18.142 24.6715 18.0381 25.101 18.0364 25.5369L18.1667 27.9845C18.2186 28.4103 18.3681 28.8184 18.6034 29.1769C18.8387 29.5356 19.1536 29.8351 19.5235 30.0523L21.6944 31.1377C22.0939 31.3122 22.5287 31.3909 22.9641 31.3673C23.3995 31.3437 23.8233 31.2186 24.2017 31.0021L26.2586 29.667C26.61 29.4095 26.8958 29.0729 27.0928 28.6844C27.2899 28.2959 27.3927 27.8665 27.3929 27.431L27.2789 25.0267C27.2321 24.5924 27.0833 24.1752 26.8447 23.8093C26.6061 23.4434 26.2844 23.139 25.9058 22.921Z" fill="white" fill-opacity="0.8"/>
<path d="M9.91046 16.8422L9.80734 14.9372C9.80984 14.5015 9.9142 14.0724 10.1121 13.6841C10.31 13.2959 10.5959 12.9593 10.9471 12.7012L14.9469 10.1016C15.3243 9.88505 15.7472 9.75995 16.1817 9.7364C16.6162 9.71285 17.0502 9.79149 17.4488 9.96592L19.153 10.8343C19.5518 11.0109 19.9866 11.0911 20.4222 11.0685C20.8578 11.0459 21.2819 10.921 21.6603 10.704L23.7118 9.3635C24.0639 9.10636 24.3505 8.76998 24.5485 8.3815C24.7465 7.99308 24.8503 7.56352 24.8515 7.12749L24.7213 4.68526C24.6746 4.25157 24.5264 3.83492 24.2888 3.46913C24.0512 3.10328 23.7309 2.79854 23.3536 2.5795L21.1827 1.46693C20.7832 1.29244 20.3484 1.2138 19.9129 1.23736C19.4776 1.26091 19.0538 1.38601 18.6754 1.60261L16.5805 2.91599C16.2291 3.17346 15.9433 3.51005 15.7462 3.89853C15.5492 4.28701 15.4464 4.71641 15.4462 5.15199L15.5439 7.05694C15.5437 7.49258 15.4409 7.92198 15.2438 8.31046C15.0468 8.69894 14.761 9.03553 14.4096 9.29294L10.4098 11.8926C10.0314 12.1096 9.60724 12.2344 9.17165 12.2571C8.73601 12.2797 8.30124 12.1994 7.90239 12.0228L6.20368 11.1599C5.80484 10.9833 5.37007 10.9031 4.93442 10.9257C4.49884 10.9483 4.0747 11.0732 3.69632 11.2902L1.64484 12.6252C1.29245 12.8821 1.00562 13.2184 0.807585 13.607C0.609547 13.9955 0.505941 14.4252 0.505127 14.8612L0.635378 17.3089C0.681618 17.7428 0.829618 18.1596 1.06722 18.5255C1.30488 18.8914 1.62546 19.196 2.00303 19.4147L4.17391 20.5001C4.57346 20.6746 5.00829 20.7533 5.44366 20.7297C5.87903 20.7062 6.30289 20.5811 6.68127 20.3644L8.73275 19.0293C9.08531 18.7811 9.37517 18.4543 9.57961 18.0747C9.784 17.6951 9.89727 17.2731 9.91046 16.8422Z" fill="white" fill-opacity="0.8"/>
<path d="M31.3949 15.0081C31.3465 14.5749 31.1977 14.1589 30.9603 13.7933C30.7228 13.4278 30.4033 13.1227 30.0272 12.9024L27.8563 11.8169C27.4567 11.6428 27.0219 11.5644 26.5866 11.588C26.1513 11.6115 25.7275 11.7364 25.349 11.9526L23.2974 13.2877C22.9457 13.5452 22.6594 13.8816 22.4614 14.27C22.2635 14.6583 22.1594 15.0878 22.1578 15.5237L22.2609 17.4341C22.2592 17.8699 22.1552 18.2994 21.9573 18.6878C21.7593 19.0761 21.4729 19.4126 21.1211 19.6701L17.1267 22.2643C16.7483 22.4809 16.3245 22.606 15.8892 22.6295C15.4538 22.6531 15.019 22.5744 14.6194 22.4L12.9152 21.5316C12.5166 21.3571 12.0826 21.2785 11.6481 21.302C11.2136 21.3256 10.7907 21.4507 10.4133 21.6673L8.3401 22.9969C7.98901 23.255 7.70311 23.5915 7.50518 23.9798C7.3073 24.368 7.20294 24.7972 7.20044 25.233L7.33064 27.6806C7.37818 28.1133 7.52667 28.5289 7.76422 28.8937C8.00182 29.2585 8.32175 29.5624 8.69834 29.7809L10.8692 30.8935C11.2671 31.0701 11.701 31.1503 12.1357 31.1276C12.5705 31.105 12.9937 30.9801 13.3712 30.7632L15.428 29.4281C15.7788 29.1698 16.0646 28.8331 16.2624 28.445C16.4603 28.0568 16.5648 27.6278 16.5678 27.1922L16.4647 25.2817C16.4659 24.8458 16.5697 24.4162 16.7677 24.0278C16.9656 23.6393 17.2523 23.3029 17.6043 23.0457L21.5987 20.4462C21.9771 20.2292 22.4013 20.1043 22.8369 20.0817C23.2725 20.059 23.7073 20.1393 24.1061 20.3159L25.8048 21.1788C26.2037 21.3554 26.6385 21.4357 27.0741 21.413C27.5097 21.3904 27.9338 21.2656 28.3122 21.0486L30.3691 19.7135C30.7202 19.4557 31.0057 19.1191 31.2028 18.7307C31.3998 18.3423 31.5028 17.913 31.5034 17.4775L31.3949 15.0081Z" fill="white" fill-opacity="0.8"/>
<path d="M38.6848 5.22412H46.8208L50.6368 20.6681L54.4528 5.22412H62.9488L55.2088 29.9921H46.0288L38.6848 5.22412Z" fill="white" fill-opacity="0.8"/>
<path d="M70.9363 30.2801C68.9203 30.2801 67.3483 29.6321 66.2203 28.3361C65.0923 27.0401 64.5283 25.2761 64.5283 23.0441V11.9561H72.1603V22.7201C72.1603 23.2721 72.3043 23.7041 72.5923 24.0161C72.9043 24.3041 73.3003 24.4481 73.7803 24.4481C74.2603 24.4481 74.7523 24.3041 75.2563 24.0161L75.6523 29.0201C75.1243 29.4281 74.4283 29.7401 73.5643 29.9561C72.7243 30.1721 71.8483 30.2801 70.9363 30.2801ZM68.3443 9.25612C67.2163 9.25612 66.2563 8.90812 65.4643 8.21212C64.6963 7.49212 64.3123 6.61612 64.3123 5.58412C64.3123 4.55212 64.7203 3.68812 65.5363 2.99212C66.3523 2.29612 67.2883 1.94812 68.3443 1.94812C69.4483 1.94812 70.3963 2.30812 71.1883 3.02812C72.0043 3.74812 72.4123 4.60012 72.4123 5.58412C72.4123 6.64012 72.0043 7.51612 71.1883 8.21212C70.3723 8.90812 69.4243 9.25612 68.3443 9.25612Z" fill="white" fill-opacity="0.8"/>
<path d="M77.7488 12.2081H85.3448V15.8801C85.8968 14.4641 86.6408 13.4201 87.5768 12.7481C88.5368 12.0521 89.6528 11.7041 90.9248 11.7041L91.9688 17.5721C89.6888 17.5721 88.0088 17.8241 86.9288 18.3281C85.8728 18.8081 85.3448 19.5761 85.3448 20.6321V29.9921H77.7488V12.2081Z" fill="white" fill-opacity="0.8"/>
<path d="M103.283 30.2801C101.267 30.2801 99.4672 29.8841 97.8832 29.0921C96.3232 28.3001 95.0992 27.2081 94.2112 25.8161C93.3472 24.4001 92.9152 22.7801 92.9152 20.9561C92.9152 19.1321 93.3592 17.5241 94.2472 16.1321C95.1352 14.7161 96.3592 13.6241 97.9192 12.8561C99.5032 12.0881 101.303 11.7041 103.319 11.7041C105.359 11.7041 107.159 12.1001 108.719 12.8921C110.303 13.6601 111.527 14.7401 112.391 16.1321C113.255 17.5241 113.687 19.1321 113.687 20.9561C113.687 22.8041 113.243 24.4361 112.355 25.8521C111.491 27.2441 110.267 28.3361 108.683 29.1281C107.123 29.8961 105.323 30.2801 103.283 30.2801ZM103.355 24.8801C104.339 24.8801 105.143 24.5201 105.767 23.8001C106.415 23.0561 106.739 22.1081 106.739 20.9561C106.739 19.8041 106.415 18.8681 105.767 18.1481C105.143 17.4041 104.339 17.0321 103.355 17.0321C102.371 17.0321 101.555 17.4041 100.907 18.1481C100.283 18.8681 99.9712 19.8041 99.9712 20.9561C99.9712 22.1081 100.283 23.0561 100.907 23.8001C101.555 24.5201 102.371 24.8801 103.355 24.8801Z" fill="white" fill-opacity="0.8"/>
<path d="M126.573 38.2361C125.253 38.2361 123.993 38.1041 122.793 37.8401L123.369 32.5121C124.305 32.6561 125.169 32.7281 125.961 32.7281C127.449 32.7281 128.577 32.2841 129.345 31.3961C130.113 30.5321 130.569 29.0681 130.713 27.0041C129.297 28.9961 127.137 29.9921 124.233 29.9921C122.649 29.9921 121.185 29.5841 119.841 28.7681C118.521 27.9521 117.465 26.8481 116.673 25.4561C115.905 24.0641 115.521 22.5401 115.521 20.8841C115.521 19.2041 115.905 17.6681 116.673 16.2761C117.441 14.8601 118.485 13.7441 119.805 12.9281C121.149 12.1121 122.613 11.7041 124.197 11.7041C125.661 11.7041 126.933 12.0881 128.013 12.8561C129.117 13.6001 129.837 14.6081 130.173 15.8801V11.7041H137.769V25.4201C137.769 29.6201 136.809 32.8001 134.889 34.9601C132.993 37.1441 130.221 38.2361 126.573 38.2361ZM126.573 24.5921C127.533 24.5921 128.361 24.2561 129.057 23.5841C129.753 22.8881 130.125 22.0721 130.173 21.1361V20.8481C130.125 19.9361 129.741 19.1321 129.021 18.4361C128.325 17.7401 127.509 17.3921 126.573 17.3921C125.589 17.3921 124.749 17.7521 124.053 18.4721C123.357 19.1681 123.009 20.0081 123.009 20.9921C123.009 21.9761 123.357 22.8281 124.053 23.5481C124.749 24.2441 125.589 24.5921 126.573 24.5921Z" fill="white" fill-opacity="0.8"/>
<path d="M149.373 30.2801C147.813 30.2801 146.349 29.8721 144.981 29.0561C143.637 28.2161 142.557 27.0881 141.741 25.6721C140.925 24.2321 140.517 22.6361 140.517 20.8841C140.517 19.1561 140.925 17.5961 141.741 16.2041C142.557 14.7881 143.649 13.6841 145.017 12.8921C146.385 12.1001 147.837 11.7041 149.373 11.7041C150.621 11.7041 151.773 12.0521 152.829 12.7481C153.909 13.4441 154.725 14.4881 155.277 15.8801V11.7041H162.837V29.9921H155.277V26.6441C154.077 29.0681 152.109 30.2801 149.373 30.2801ZM151.713 24.5921C152.673 24.5921 153.489 24.2561 154.161 23.5841C154.857 22.8881 155.229 22.0721 155.277 21.1361V20.8481C155.229 19.8881 154.845 19.0721 154.125 18.4001C153.429 17.7281 152.625 17.3921 151.713 17.3921C150.705 17.3921 149.841 17.7521 149.121 18.4721C148.425 19.1681 148.077 20.0081 148.077 20.9921C148.077 22.0001 148.437 22.8521 149.157 23.5481C149.877 24.2441 150.729 24.5921 151.713 24.5921Z" fill="white" fill-opacity="0.8"/>
<path d="M166.483 12.2081H173.719V15.8801C175.111 13.0961 177.319 11.7041 180.343 11.7041C182.647 11.7041 184.447 12.5321 185.743 14.1881C187.063 15.8201 187.723 18.0881 187.723 20.9921V29.9921H180.163V20.2361C180.163 19.2041 179.935 18.4121 179.479 17.8601C179.047 17.3081 178.435 17.0321 177.643 17.0321C177.067 17.0321 176.503 17.2241 175.951 17.6081C175.399 17.9681 174.943 18.4961 174.583 19.1921C174.247 19.8881 174.079 20.6801 174.079 21.5681V29.9921H166.483V12.2081Z" fill="white" fill-opacity="0.8"/>
</svg>
