<svg width="181" height="37" viewBox="0 0 181 37" fill="none" xmlns="http://www.w3.org/2000/svg">
<path d="M7.62998 12.7795L12.0626 10.2231L9.58839 5.9399H32.8579L21.2269 26.0923L18.7527 21.8017L14.3201 24.3656L21.2269 36.3256L41.7231 0.81958H0.723145L7.62998 12.7795Z" fill="white" fill-opacity="0.8"/>
<path d="M60.1127 29.8196L68.9627 8.81958H64.7327L58.4927 24.0596L52.2227 8.81958H47.9927L56.8427 29.8196H60.1127Z" fill="white" fill-opacity="0.8"/>
<path d="M73.9666 8.81958V29.8196H89.5966V26.0996H77.9866V21.0596H87.7966V17.3396H77.9866V12.5396H89.4466V8.81958H73.9666Z" fill="white" fill-opacity="0.8"/>
<path d="M95.365 8.81958V29.8196H99.385V22.4096H104.275L108.685 29.8196H113.155L108.355 21.7196C110.785 20.6396 112.345 18.3296 112.345 15.5996C112.345 13.6796 111.655 12.0596 110.245 10.7696C108.865 9.47958 107.155 8.81958 105.085 8.81958H95.365ZM105.085 12.5396C106.855 12.5396 108.145 13.8296 108.145 15.5996C108.145 17.3696 106.855 18.6896 105.085 18.6896H99.385V12.5396H105.085Z" fill="white" fill-opacity="0.8"/>
<path d="M123.905 12.5396V29.8196H127.955V12.5396H134.915V8.81958H116.945V12.5396H123.905Z" fill="white" fill-opacity="0.8"/>
<path d="M140.388 8.81958V29.8196H156.018V26.0996H144.408V21.0596H154.218V17.3396H144.408V12.5396H155.868V8.81958H140.388Z" fill="white" fill-opacity="0.8"/>
<path d="M168.117 19.1096L160.317 29.8196H165.147L170.517 22.4096L175.887 29.8196H180.687L172.917 19.1096L180.387 8.81958H175.587L170.517 15.8096L165.447 8.81958H160.617L168.117 19.1096Z" fill="white" fill-opacity="0.8"/>
</svg>
