<svg width="188" height="40" viewBox="0 0 188 40" fill="none" xmlns="http://www.w3.org/2000/svg">
<path d="M21.984 6.70351L23.4711 5.21643C26.3913 2.29621 31.1455 2.22393 34.0826 5.12733C35.1954 6.22993 35.935 7.65344 36.1974 9.19792C36.4597 10.7424 36.2316 12.3303 35.5452 13.7385C35.2159 14.4112 35.105 15.1699 35.2277 15.9087C35.3507 16.6475 35.7012 17.3294 36.2305 17.8593C37.2038 16.8838 37.9751 15.7261 38.5008 14.4524C39.0264 13.1786 39.296 11.8138 39.2941 10.4359C39.292 9.05793 39.0188 7.69387 38.4895 6.42162C37.9602 5.14936 37.1854 3.99385 36.2094 3.0211C32.1025 -1.06266 25.4362 -0.981395 21.3408 3.11384L7.16646 17.2878L6.0012 16.1225C3.03145 13.1528 3.01252 8.29843 6.03466 5.38145C7.15332 4.30505 8.57852 3.60237 10.1135 3.37043C11.6486 3.13849 13.2177 3.38871 14.6045 4.08655C15.2375 4.41091 15.9567 4.52693 16.6596 4.41808C17.3624 4.30922 18.0129 3.98104 18.5181 3.4804L18.5542 3.44445C18.5655 3.43328 18.5744 3.41999 18.5805 3.40535C18.5866 3.39072 18.5897 3.37502 18.5897 3.35917C18.5897 3.34332 18.5866 3.32762 18.5805 3.31299C18.5744 3.29836 18.5655 3.28507 18.5542 3.27389C16.6033 1.372 13.989 0.303712 11.2645 0.295074C8.53993 0.286439 5.91888 1.33813 3.95597 3.22761C-0.272361 7.30947 -0.257251 14.0972 3.8986 18.253L18.0687 32.4232L16.5635 33.9284C13.6433 36.8487 8.88892 36.9209 5.95205 34.0175C4.83917 32.915 4.09961 31.4914 3.83724 29.947C3.5749 28.4025 3.8029 26.8147 4.48926 25.4064C4.81855 24.7337 4.92954 23.975 4.80672 23.2363C4.68388 22.4974 4.33337 21.8154 3.80414 21.2855C2.83092 22.2611 2.05944 23.4187 1.53377 24.6924C1.00809 25.9663 0.738536 27.331 0.740489 28.709C0.742442 30.0869 1.01587 31.4511 1.54515 32.7232C2.07443 33.9955 2.8492 35.1511 3.82518 36.1238C7.93189 40.2077 14.5984 40.1266 18.6938 36.0312L32.8865 21.8383L34.0562 23.008C36.9764 25.9282 37.0487 30.6824 34.1453 33.6192C33.0427 34.7323 31.6191 35.4717 30.0747 35.7343C28.5303 35.9966 26.9424 35.7685 25.5341 35.082C24.8612 34.7526 24.1021 34.6415 23.3631 34.7646C22.624 34.8876 21.9418 35.2384 21.4119 35.7681C22.3875 36.7414 23.5451 37.5129 24.8188 38.0386C26.0927 38.5642 27.4574 38.8338 28.8354 38.8319C30.2133 38.8298 31.5775 38.5564 32.8496 38.0271C34.122 37.4978 35.2775 36.723 36.2502 35.7471C40.3341 31.6404 40.2529 24.9739 36.1576 20.8786L21.984 6.70351ZM20.1847 30.3062L9.28301 19.4045L19.8673 8.82044L30.769 19.7222L20.1847 30.3062Z" fill="white" fill-opacity="0.8"/>
<path d="M57.3924 32.2149C55.2231 32.2149 53.5647 31.5784 52.4172 30.3055C51.2788 29.0325 50.6423 27.2935 50.5078 25.0882L53.9501 24.2277C54.1204 27.67 55.2679 29.3911 57.3924 29.3911C59.1136 29.3911 59.9741 28.5305 59.9741 26.8094C59.9741 26.2984 59.9024 25.8278 59.759 25.3975C59.6245 24.9583 59.4139 24.5594 59.127 24.2008C58.8401 23.8332 58.5802 23.5419 58.3471 23.3268C58.114 23.1027 57.7958 22.8292 57.3924 22.5065L53.0895 19.0642C52.3007 18.4457 51.6687 17.6613 51.1936 16.7111C50.7275 15.7519 50.4944 14.6628 50.4944 13.4436C50.4944 11.6687 51.0457 10.2568 52.1483 9.208C53.2509 8.15918 54.7121 7.63477 56.5318 7.63477C58.4861 7.63477 60.0369 8.11436 61.1843 9.07354C62.3407 10.0238 63.0534 11.3729 63.3223 13.1209C63.3492 13.3092 63.3806 13.5691 63.4164 13.9008L59.9741 14.7614C59.9652 14.609 59.9428 14.3804 59.9069 14.0756C59.7545 12.982 59.4094 12.1079 58.8715 11.4536C58.3426 10.7902 57.5627 10.4585 56.5318 10.4585C55.7071 10.4585 55.0707 10.6916 54.6224 11.1577C54.1742 11.6149 53.9501 12.2559 53.9501 13.0806C53.9501 14.4342 54.5238 15.5682 55.6713 16.4825L59.9741 19.9248C62.269 21.7804 63.4164 23.9991 63.4164 26.5808C63.4164 28.3468 62.8696 29.7273 61.776 30.7223C60.6913 31.7173 59.2301 32.2149 57.3924 32.2149Z" fill="white" fill-opacity="0.8"/>
<path d="M70.6103 29.3911C71.5157 29.3911 72.3762 29.158 73.192 28.6919V18.0423C73.1561 18.0244 73.0665 17.9706 72.9231 17.881C72.7796 17.7913 72.6765 17.733 72.6138 17.7062C72.56 17.6703 72.4659 17.6165 72.3314 17.5448C72.1969 17.4731 72.0849 17.4238 71.9953 17.3969C71.9146 17.361 71.807 17.3252 71.6725 17.2893C71.547 17.2445 71.4215 17.2131 71.296 17.1952C71.1795 17.1773 71.054 17.1683 70.9195 17.1683C70.6327 17.1683 70.3772 17.2355 70.1531 17.37C69.9379 17.4955 69.7587 17.6479 69.6152 17.8272C69.4718 18.0065 69.3463 18.2619 69.2387 18.5936C69.1401 18.9253 69.0684 19.2211 69.0236 19.4811C68.9788 19.7321 68.9429 20.0727 68.916 20.503C68.8891 20.9243 68.8712 21.2515 68.8622 21.4846C68.8622 21.7177 68.8622 22.0449 68.8622 22.4662C68.8622 22.4841 68.8622 22.4976 68.8622 22.5065C68.8622 22.6589 68.8622 22.9054 68.8622 23.2461C68.8622 23.5867 68.8622 23.9139 68.8622 24.2277C68.8622 24.5414 68.8622 24.8372 68.8622 25.1151C68.8712 25.7157 68.8981 26.2446 68.9429 26.7018C68.9967 27.15 69.0819 27.5938 69.1984 28.033C69.3239 28.4633 69.5032 28.7995 69.7362 29.0415C69.9783 29.2746 70.2696 29.3911 70.6103 29.3911ZM73.192 37.1363V30.4265C72.681 30.9554 72.1521 31.3857 71.6053 31.7173C71.0674 32.049 70.4489 32.2149 69.7497 32.2149C69.0863 32.2149 68.4947 32.049 67.9748 31.7173C67.4638 31.3767 67.0514 30.9419 66.7377 30.413C66.4329 29.8841 66.1774 29.2611 65.9712 28.544C65.774 27.8179 65.6351 27.1052 65.5544 26.406C65.4827 25.7068 65.4468 24.9807 65.4468 24.2277V21.6056C65.4468 20.8257 65.4827 20.1131 65.5544 19.4676C65.6261 18.8222 65.7561 18.1857 65.9443 17.5582C66.1326 16.9307 66.3791 16.4018 66.6839 15.9716C66.9977 15.5323 67.41 15.1827 67.921 14.9227C68.4319 14.6538 69.0236 14.5193 69.6959 14.5193C70.0814 14.5193 70.4399 14.5731 70.7716 14.6807C71.1123 14.7793 71.435 14.9407 71.7398 15.1648C72.0535 15.3889 72.2956 15.5861 72.4659 15.7564C72.6452 15.9178 72.8872 16.1598 73.192 16.4825V14.7614H76.6343V37.1363H73.192Z" fill="white" fill-opacity="0.8"/>
<path d="M81.8515 32.2149C81.0985 32.2149 80.4934 31.9504 80.0362 31.4215C79.579 30.8837 79.3505 30.2203 79.3505 29.4315V14.7614H82.7927V28.3826C82.7927 28.7412 82.9003 29.0325 83.1155 29.2566C83.3396 29.4808 83.6264 29.5928 83.976 29.5928C84.1643 29.5928 84.348 29.5704 84.5273 29.5256C84.7066 29.4808 84.8814 29.4046 85.0517 29.297C85.231 29.1805 85.37 29.0908 85.4686 29.0281C85.5672 28.9563 85.7061 28.8398 85.8854 28.6784C86.0737 28.5171 86.1902 28.4185 86.235 28.3826V14.7614H89.6773V31.9728H86.235V30.1172C85.8944 30.413 85.6434 30.6282 85.482 30.7626C85.3296 30.8971 85.0921 31.0809 84.7694 31.314C84.4467 31.5381 84.1598 31.7039 83.9088 31.8115C83.6668 31.9101 83.362 31.9997 82.9944 32.0804C82.6269 32.17 82.2459 32.2149 81.8515 32.2149Z" fill="white" fill-opacity="0.8"/>
<path d="M97.3956 29.3911C97.6376 29.3911 97.8707 29.3194 98.0948 29.176C98.3279 29.0325 98.5027 28.8936 98.6192 28.7591C98.7357 28.6247 98.8792 28.4454 99.0495 28.2213C99.0764 28.1764 99.0988 28.1451 99.1167 28.1271V23.3671C98.9733 23.4657 98.7357 23.6181 98.4041 23.8243C98.0724 24.0305 97.8079 24.2008 97.6107 24.3352C97.4135 24.4607 97.176 24.64 96.8981 24.8731C96.6202 25.0972 96.405 25.3168 96.2526 25.532C96.1002 25.7382 95.9658 25.9936 95.8492 26.2984C95.7327 26.6032 95.6744 26.9214 95.6744 27.2531C95.6744 28.6784 96.2482 29.3911 97.3956 29.3911ZM95.6744 32.2149C94.7153 32.2149 93.8995 31.8025 93.2272 30.9778C92.5638 30.1441 92.2321 29.2073 92.2321 28.1675C92.2321 27.3338 92.3711 26.5763 92.649 25.895C92.9358 25.2137 93.2361 24.6714 93.5499 24.268C93.8637 23.8557 94.3881 23.4343 95.1231 23.0041C95.8582 22.5648 96.414 22.2645 96.7905 22.1031C97.167 21.9418 97.8214 21.6773 98.7537 21.3098C98.915 21.247 99.036 21.1977 99.1167 21.1619V19.9248C99.1167 19.0553 98.9957 18.383 98.7537 17.9078C98.5116 17.4238 98.0589 17.1817 97.3956 17.1817C96.8039 17.1817 96.3781 17.3879 96.1182 17.8003C95.8672 18.2037 95.7237 18.7639 95.6879 19.4811C95.6789 19.5797 95.6744 19.7276 95.6744 19.9248H92.2321C92.2501 18.2754 92.7117 16.9621 93.6171 15.985C94.5225 15.0079 95.782 14.5193 97.3956 14.5193C99.0002 14.5193 100.26 15.0169 101.174 16.0119C102.097 16.998 102.559 18.3023 102.559 19.9248V27.67C102.559 29.4628 102.707 30.8971 103.003 31.9728H99.5739L99.1167 29.3911C98.9374 29.7497 98.7895 30.0276 98.673 30.2248C98.5654 30.422 98.4041 30.6685 98.1889 30.9643C97.9738 31.2512 97.7586 31.4753 97.5435 31.6367C97.3284 31.7891 97.0594 31.9235 96.7367 32.0401C96.414 32.1566 96.0599 32.2149 95.6744 32.2149Z" fill="white" fill-opacity="0.8"/>
<path d="M105.531 31.9728V14.7614H108.973V17.0607C109.323 16.3794 109.829 15.7878 110.492 15.2858C111.165 14.7748 111.909 14.5193 112.725 14.5193C112.751 14.5193 112.935 14.5373 113.276 14.5731V18.3785C112.639 18.1275 112.003 18.002 111.366 18.002C110.649 18.002 110.071 18.2171 109.632 18.6474C109.193 19.0777 108.973 19.6469 108.973 20.3551V31.9728H105.531Z" fill="white" fill-opacity="0.8"/>
<path d="M119.596 32.2149C118.762 32.2149 118.036 32.0714 117.417 31.7846C116.808 31.4977 116.319 31.1257 115.952 30.6685C115.593 30.2024 115.302 29.6107 115.078 28.8936C114.854 28.1675 114.697 27.4459 114.607 26.7287C114.526 26.0026 114.477 25.16 114.459 24.2008C114.432 23.4478 114.432 22.6948 114.459 21.9418C114.486 21.0454 114.544 20.252 114.634 19.5618C114.733 18.8625 114.898 18.1857 115.131 17.5313C115.365 16.877 115.665 16.3391 116.032 15.9178C116.409 15.4965 116.897 15.1603 117.498 14.9093C118.108 14.6493 118.816 14.5193 119.623 14.5193C120.358 14.5193 121.003 14.618 121.559 14.8152C122.124 15.0034 122.59 15.2948 122.957 15.6892C123.334 16.0746 123.643 16.5049 123.885 16.98C124.136 17.4552 124.324 18.0333 124.45 18.7146C124.575 19.387 124.66 20.0503 124.705 20.7047C124.759 21.3591 124.786 22.1121 124.786 22.9637V23.3671H117.901V24.2277C117.901 24.3442 117.901 24.528 117.901 24.779C117.883 25.1107 117.879 25.4558 117.888 25.8144C117.906 26.164 117.924 26.5091 117.942 26.8497C117.96 27.1904 118.009 27.5176 118.09 27.8313C118.17 28.1361 118.269 28.405 118.385 28.6381C118.502 28.8712 118.663 29.055 118.87 29.1894C119.085 29.3239 119.336 29.3911 119.623 29.3911C119.981 29.3911 120.277 29.3239 120.51 29.1894C120.743 29.046 120.913 28.8353 121.021 28.5574C121.138 28.2795 121.218 28.0016 121.263 27.7238C121.308 27.4459 121.335 27.0963 121.344 26.6749V25.9488H124.759V26.6346C124.678 28.4723 124.226 29.8617 123.401 30.803C122.576 31.7442 121.308 32.2149 119.596 32.2149ZM117.901 21.646H121.317V20.6106C121.308 20.1534 121.281 19.7545 121.236 19.4139C121.191 19.0732 121.111 18.7326 120.994 18.3919C120.887 18.0513 120.716 17.7913 120.483 17.612C120.25 17.4327 119.963 17.3431 119.623 17.3431C119.273 17.3431 118.977 17.4372 118.735 17.6255C118.502 17.8137 118.327 18.0871 118.211 18.4457C118.103 18.7953 118.027 19.1404 117.982 19.4811C117.937 19.8217 117.91 20.2296 117.901 20.7047V21.646Z" fill="white" fill-opacity="0.8"/>
<path d="M133.714 32.2149C131.545 32.2149 129.887 31.5784 128.739 30.3055C127.601 29.0325 126.964 27.2935 126.83 25.0882L130.272 24.2277C130.442 27.67 131.59 29.3911 133.714 29.3911C135.436 29.3911 136.296 28.5305 136.296 26.8094C136.296 26.2984 136.224 25.8278 136.081 25.3975C135.947 24.9583 135.736 24.5594 135.449 24.2008C135.162 23.8332 134.902 23.5419 134.669 23.3268C134.436 23.1027 134.118 22.8292 133.714 22.5065L129.412 19.0642C128.623 18.4457 127.991 17.6613 127.516 16.7111C127.049 15.7519 126.816 14.6628 126.816 13.4436C126.816 11.6687 127.368 10.2568 128.47 9.208C129.573 8.15918 131.034 7.63477 132.854 7.63477C134.808 7.63477 136.359 8.11436 137.506 9.07354C138.663 10.0238 139.375 11.3729 139.644 13.1209C139.671 13.3092 139.703 13.5691 139.738 13.9008L136.296 14.7614C136.287 14.609 136.265 14.3804 136.229 14.0756C136.077 12.982 135.731 12.1079 135.194 11.4536C134.665 10.7902 133.885 10.4585 132.854 10.4585C132.029 10.4585 131.393 10.6916 130.944 11.1577C130.496 11.6149 130.272 12.2559 130.272 13.0806C130.272 14.4342 130.846 15.5682 131.993 16.4825L136.296 19.9248C138.591 21.7804 139.738 23.9991 139.738 26.5808C139.738 28.3468 139.192 29.7273 138.098 30.7223C137.013 31.7173 135.552 32.2149 133.714 32.2149Z" fill="white" fill-opacity="0.8"/>
<path d="M146.879 32.2149C145.525 32.2149 144.539 31.8697 143.92 31.1795C143.311 30.4892 142.997 29.4449 142.979 28.0465V17.3431H141.258V14.7614H142.979V8.73737H146.421V14.7614H149.003V17.3431H146.421V27.3876C146.421 28.0778 146.515 28.5843 146.704 28.907C146.892 29.2298 147.273 29.3911 147.847 29.3911C148.098 29.3911 148.483 29.3463 149.003 29.2566V32.0535C148.142 32.1611 147.434 32.2149 146.879 32.2149Z" fill="white" fill-opacity="0.8"/>
<path d="M160.217 30.6013C159.42 31.677 158.097 32.2149 156.251 32.2149C154.404 32.2149 153.082 31.677 152.284 30.6013C151.486 29.5256 151.087 27.9748 151.087 25.9488V20.7854C151.087 18.7595 151.486 17.2086 152.284 16.1329C153.082 15.0572 154.404 14.5193 156.251 14.5193C158.097 14.5193 159.42 15.0572 160.217 16.1329C161.015 17.2086 161.414 18.7595 161.414 20.7854V25.9488C161.414 27.9748 161.015 29.5256 160.217 30.6013ZM155.605 29.2835C155.793 29.3553 156.009 29.3911 156.251 29.3911C156.493 29.3911 156.703 29.3553 156.883 29.2835C157.071 29.2118 157.223 29.1267 157.34 29.0281C157.465 28.9205 157.568 28.7681 157.649 28.5709C157.73 28.3647 157.793 28.1854 157.837 28.033C157.882 27.8806 157.914 27.661 157.931 27.3741C157.949 27.0873 157.958 26.8632 157.958 26.7018C157.967 26.5315 157.972 26.2805 157.972 25.9488V20.7854C157.972 20.4537 157.967 20.2072 157.958 20.0458C157.958 19.8755 157.949 19.6469 157.931 19.3601C157.914 19.0732 157.882 18.8536 157.837 18.7012C157.793 18.5488 157.73 18.374 157.649 18.1768C157.568 17.9706 157.465 17.8182 157.34 17.7196C157.223 17.612 157.071 17.5224 156.883 17.4507C156.703 17.379 156.493 17.3431 156.251 17.3431C156.009 17.3431 155.793 17.379 155.605 17.4507C155.426 17.5224 155.274 17.612 155.148 17.7196C155.032 17.8182 154.933 17.9706 154.852 18.1768C154.772 18.374 154.709 18.5488 154.664 18.7012C154.619 18.8536 154.588 19.0732 154.57 19.3601C154.552 19.6469 154.538 19.8755 154.53 20.0458C154.53 20.2072 154.53 20.4537 154.53 20.7854V25.9488C154.53 26.2805 154.53 26.5315 154.53 26.7018C154.538 26.8632 154.552 27.0873 154.57 27.3741C154.588 27.661 154.619 27.8806 154.664 28.033C154.709 28.1854 154.772 28.3647 154.852 28.5709C154.933 28.7681 155.032 28.9205 155.148 29.0281C155.274 29.1267 155.426 29.2118 155.605 29.2835Z" fill="white" fill-opacity="0.8"/>
<path d="M164.238 31.9728V14.7614H167.68V16.617C168.191 16.1508 168.608 15.7968 168.931 15.5547C169.253 15.3037 169.697 15.0706 170.262 14.8555C170.836 14.6314 171.445 14.5193 172.091 14.5193C172.826 14.5193 173.422 14.7883 173.879 15.3261C174.336 15.864 174.565 16.5229 174.565 17.3028V31.9728H171.122V19.0642C171.122 18.4636 171.037 18.0289 170.867 17.7599C170.697 17.482 170.352 17.3431 169.832 17.3431C169.536 17.3431 169.24 17.4058 168.944 17.5313C168.657 17.6479 168.442 17.7599 168.299 17.8675C168.155 17.9661 167.949 18.1275 167.68 18.3516V31.9728H164.238Z" fill="white" fill-opacity="0.8"/>
<path d="M182.444 32.2149C181.611 32.2149 180.885 32.0714 180.266 31.7846C179.656 31.4977 179.168 31.1257 178.8 30.6685C178.442 30.2024 178.15 29.6107 177.926 28.8936C177.702 28.1675 177.545 27.4459 177.456 26.7287C177.375 26.0026 177.326 25.16 177.308 24.2008C177.281 23.4478 177.281 22.6948 177.308 21.9418C177.335 21.0454 177.393 20.252 177.483 19.5618C177.581 18.8625 177.747 18.1857 177.98 17.5313C178.213 16.877 178.514 16.3391 178.881 15.9178C179.258 15.4965 179.746 15.1603 180.347 14.9093C180.956 14.6493 181.664 14.5193 182.471 14.5193C183.206 14.5193 183.852 14.618 184.408 14.8152C184.972 15.0034 185.438 15.2948 185.806 15.6892C186.182 16.0746 186.492 16.5049 186.734 16.98C186.985 17.4552 187.173 18.0333 187.299 18.7146C187.424 19.387 187.509 20.0503 187.554 20.7047C187.608 21.3591 187.635 22.1121 187.635 22.9637V23.3671H180.75V24.2277C180.75 24.3442 180.75 24.528 180.75 24.779C180.732 25.1107 180.728 25.4558 180.737 25.8144C180.755 26.164 180.773 26.5091 180.79 26.8497C180.808 27.1904 180.858 27.5176 180.938 27.8313C181.019 28.1361 181.118 28.405 181.234 28.6381C181.351 28.8712 181.512 29.055 181.718 29.1894C181.933 29.3239 182.184 29.3911 182.471 29.3911C182.83 29.3911 183.126 29.3239 183.359 29.1894C183.592 29.046 183.762 28.8353 183.87 28.5574C183.986 28.2795 184.067 28.0016 184.112 27.7238C184.157 27.4459 184.183 27.0963 184.192 26.6749V25.9488H187.608V26.6346C187.527 28.4723 187.074 29.8617 186.25 30.803C185.425 31.7442 184.157 32.2149 182.444 32.2149ZM180.75 21.646H184.165V20.6106C184.157 20.1534 184.13 19.7545 184.085 19.4139C184.04 19.0732 183.959 18.7326 183.843 18.3919C183.735 18.0513 183.565 17.7913 183.332 17.612C183.099 17.4327 182.812 17.3431 182.471 17.3431C182.122 17.3431 181.826 17.4372 181.584 17.6255C181.351 17.8137 181.176 18.0871 181.059 18.4457C180.952 18.7953 180.876 19.1404 180.831 19.4811C180.786 19.8217 180.759 20.2296 180.75 20.7047V21.646Z" fill="white" fill-opacity="0.8"/>
</svg>
