<svg width="177" height="31" viewBox="0 0 177 31" fill="none" xmlns="http://www.w3.org/2000/svg">
<path d="M170.796 24.8165C170.232 24.187 169.753 23.4846 169.373 22.7279C168.772 21.5418 167.942 20.4888 166.931 19.631C165.919 18.7732 164.748 18.1278 163.486 17.7331C162.382 17.3893 161.226 17.2433 160.072 17.3019C160.912 17.2536 161.739 17.5267 162.388 18.0668C163.036 18.6067 163.458 19.3736 163.569 20.2137C163.873 22.0289 164.671 23.7233 165.876 25.1076C167.08 26.492 168.643 27.5118 170.39 28.0531C172.387 28.6714 174.528 28.638 176.505 27.9579C174.303 27.596 172.288 26.4879 170.796 24.8165Z" fill="white" fill-opacity="0.8"/>
<path d="M156.638 17.1226C156.895 18.2433 157.347 19.3109 157.974 20.2774C157.516 19.5756 157.34 18.7291 157.48 17.9047C157.62 17.0803 158.066 16.338 158.731 15.8242C160.142 14.6657 161.201 13.1412 161.791 11.4204C162.38 9.69957 162.477 7.85009 162.07 6.07792C161.606 4.05059 160.505 2.22222 158.925 0.856689C159.712 2.94303 159.757 5.23335 159.053 7.34869C158.784 8.14729 158.41 8.9071 157.94 9.60846C157.219 10.7102 156.728 11.9444 156.496 13.2378C156.263 14.5313 156.294 15.8579 156.588 17.1392L156.638 17.1226Z" fill="white" fill-opacity="0.8"/>
<path d="M161.558 21.0247C161.184 21.7786 160.544 22.3614 159.766 22.656C158.987 22.9507 158.128 22.9354 157.36 22.6133C155.668 21.9691 153.832 21.8155 152.059 22.1699C150.286 22.5243 148.645 23.3726 147.319 24.6201C145.807 26.0489 144.781 27.9286 144.389 29.9881C145.795 28.2533 147.743 27.0577 149.909 26.5989C150.722 26.4297 151.554 26.3642 152.383 26.4038C153.685 26.4723 154.986 26.2753 156.211 25.8244C157.437 25.3734 158.56 24.6778 159.516 23.7783C160.353 22.9889 161.048 22.057 161.569 21.0247H161.558Z" fill="white" fill-opacity="0.8"/>
<path d="M0.634766 29.8564H5.35077V18.3724C5.35077 17.1004 5.69877 16.0804 6.39477 15.3124C7.09077 14.5444 8.00277 14.1604 9.13077 14.1604C10.2828 14.1604 11.1948 14.5444 11.8668 15.3124C12.5628 16.0564 12.9108 17.0764 12.9108 18.3724V29.8564H17.6268V18.3724C17.6268 17.1004 17.9748 16.0804 18.6708 15.3124C19.3668 14.5444 20.2788 14.1604 21.4068 14.1604C22.5588 14.1604 23.4708 14.5444 24.1428 15.3124C24.8388 16.0564 25.1868 17.0764 25.1868 18.3724V29.8564H29.9028V17.2564C29.9028 15.7924 29.5788 14.5084 28.9308 13.4044C28.3068 12.2764 27.4548 11.4004 26.3748 10.7764C25.2948 10.1524 24.0588 9.84038 22.6668 9.84038C21.3708 9.84038 20.1948 10.1044 19.1388 10.6324C18.1068 11.1604 17.2548 11.9524 16.5828 13.0084C16.0068 12.0484 15.1788 11.2804 14.0988 10.7044C13.0428 10.1284 11.8548 9.84038 10.5348 9.84038C9.31077 9.84038 8.21877 10.0804 7.25877 10.5604C6.29877 11.0404 5.56677 11.7604 5.06277 12.7204V10.2724H0.634766V29.8564Z" fill="white" fill-opacity="0.8"/>
<path d="M39.8326 30.2884C42.3766 30.2884 44.4166 29.4484 45.9526 27.7684V29.8564H50.4166V16.8244C50.4166 15.4564 50.0686 14.2444 49.3726 13.1884C48.6766 12.1324 47.7166 11.3164 46.4926 10.7404C45.2926 10.1404 43.8886 9.84038 42.2806 9.84038C40.3126 9.84038 38.5606 10.3084 37.0246 11.2444C35.4886 12.1804 34.4326 13.4164 33.8566 14.9524L37.7086 16.8244C38.0686 15.9364 38.6326 15.2284 39.4006 14.7004C40.1686 14.1484 41.0686 13.8724 42.1006 13.8724C43.1806 13.8724 44.0446 14.1604 44.6926 14.7364C45.3646 15.2884 45.7006 15.9844 45.7006 16.8244V17.4724L39.8686 18.4084C37.5646 18.7924 35.8606 19.5244 34.7566 20.6044C33.6526 21.6844 33.1006 23.0404 33.1006 24.6724C33.1006 26.4004 33.7126 27.7684 34.9366 28.7764C36.1606 29.7844 37.7926 30.2884 39.8326 30.2884ZM37.9966 24.4924C37.9966 23.1244 38.9206 22.2604 40.7686 21.9004L45.7006 21.0724V21.8644C45.7006 23.2084 45.2326 24.3484 44.2966 25.2844C43.3846 26.2204 42.1846 26.6884 40.6966 26.6884C39.9046 26.6884 39.2566 26.4964 38.7526 26.1124C38.2486 25.7044 37.9966 25.1644 37.9966 24.4924Z" fill="white" fill-opacity="0.8"/>
<path d="M54.7754 29.8564H59.4914V18.9484C59.4914 17.4604 59.8994 16.3084 60.7154 15.4924C61.5554 14.6524 62.6354 14.2324 63.9554 14.2324H65.6474V10.0564H64.4954C63.2954 10.0564 62.2394 10.2724 61.3274 10.7044C60.4154 11.1364 59.7074 11.9164 59.2034 13.0444V10.2724H54.7754V29.8564Z" fill="white" fill-opacity="0.8"/>
<path d="M77.6956 30.0724C78.4876 30.0724 79.2676 30.0124 80.0356 29.8924V25.8244C79.5796 25.8964 79.1596 25.9324 78.7756 25.9324C77.6236 25.9324 76.7836 25.6684 76.2556 25.1404C75.7276 24.6124 75.4636 23.8564 75.4636 22.8724V14.4844H79.9636V10.2724H75.4636V5.80838H70.7476V7.32038C70.7476 8.28038 70.4836 9.01238 69.9556 9.51638C69.4276 10.0204 68.6836 10.2724 67.7236 10.2724H67.3636V14.4844H70.7476V23.1244C70.7476 25.3084 71.3476 27.0124 72.5476 28.2364C73.7716 29.4604 75.4876 30.0724 77.6956 30.0724Z" fill="white" fill-opacity="0.8"/>
<path d="M83.6387 8.07638H88.3547V3.03638H83.6387V8.07638ZM83.6387 29.8564H88.3547V10.2724H83.6387V29.8564Z" fill="white" fill-opacity="0.8"/>
<path d="M92.709 29.8564H97.425V18.3724C97.425 17.1004 97.785 16.0804 98.505 15.3124C99.249 14.5444 100.209 14.1604 101.385 14.1604C102.561 14.1604 103.509 14.5444 104.229 15.3124C104.973 16.0564 105.345 17.0764 105.345 18.3724V29.8564H110.061V17.2564C110.061 15.7924 109.749 14.5084 109.125 13.4044C108.501 12.2764 107.625 11.4004 106.497 10.7764C105.393 10.1524 104.121 9.84038 102.681 9.84038C101.457 9.84038 100.353 10.0804 99.369 10.5604C98.409 11.0404 97.665 11.7484 97.137 12.6844V10.2724H92.709V29.8564Z" fill="white" fill-opacity="0.8"/>
<path d="M123.625 30.2884C125.521 30.2884 127.249 29.8564 128.809 28.9924C130.369 28.1044 131.617 26.8924 132.553 25.3564C133.489 23.7964 133.957 22.0324 133.957 20.0644C133.957 18.0964 133.489 16.3444 132.553 14.8084C131.641 13.2724 130.405 12.0604 128.845 11.1724C127.285 10.2844 125.545 9.84038 123.625 9.84038C121.681 9.84038 119.929 10.2844 118.369 11.1724C116.809 12.0604 115.561 13.2724 114.625 14.8084C113.713 16.3444 113.257 18.0964 113.257 20.0644C113.257 22.0324 113.713 23.7844 114.625 25.3204C115.561 26.8564 116.809 28.0684 118.369 28.9564C119.953 29.8444 121.705 30.2884 123.625 30.2884ZM123.625 25.9684C122.569 25.9684 121.621 25.7164 120.781 25.2124C119.965 24.7084 119.317 24.0124 118.837 23.1244C118.381 22.2124 118.153 21.1924 118.153 20.0644C118.153 18.9364 118.381 17.9284 118.837 17.0404C119.317 16.1524 119.965 15.4564 120.781 14.9524C121.621 14.4244 122.569 14.1604 123.625 14.1604C124.681 14.1604 125.605 14.4244 126.397 14.9524C127.213 15.4564 127.849 16.1524 128.305 17.0404C128.785 17.9284 129.025 18.9364 129.025 20.0644C129.025 21.1924 128.785 22.2124 128.305 23.1244C127.849 24.0124 127.213 24.7084 126.397 25.2124C125.605 25.7164 124.681 25.9684 123.625 25.9684Z" fill="white" fill-opacity="0.8"/>
</svg>
